<svg id="Layer_1" data-name="Layer 1" xmlns="http://www.w3.org/2000/svg" viewBox="0 0 595.3 841.9"><defs><style>.cls-1{font-size:18px;font-family:Montserrat-Bold, Montserrat;}.cls-1,.cls-5,.cls-6{fill:#1d1d1b;}.cls-1,.cls-5{font-weight:700;}.cls-2{fill:#36a9e1;}.cls-3{fill:#303541;}.cls-4{fill:#fff;}.cls-5,.cls-6{font-size:9px;}.cls-5{font-family:OpenSans-Bold, Open Sans;}.cls-6{font-family:OpenSans-Regular, Open Sans;}.cls-7{fill:#3ca9e0;}.cls-8{fill:#3ba9e0;}.cls-9{fill:#3da9e0;}</style></defs><title>LH EP</title><text class="cls-1" transform="translate(78.72 63.76)">ESTIMATORPRO CONSULTANTS</text><rect class="cls-2" x="36" y="121.16" width="523" height="4.32"/><rect class="cls-3" y="816.47" width="595.3" height="25.2"/><circle class="cls-4" cx="123.35" cy="596.49" r="10.23"/><text class="cls-5" transform="translate(424.06 57.23)">Ahmednagar, Maharashtra</text><text class="cls-6" transform="translate(468.29 71.18)">+91 - 9854 121 121</text><text class="cls-6" transform="translate(390.76 85.4)">estimatorproconsultants@gmail.com</text><polygon class="cls-2" points="54.53 65.06 38.38 55.73 38.38 50.08 54.53 59.4 54.53 65.06"/><polygon class="cls-2" points="54.53 73.44 38.38 64.11 38.38 58.45 54.53 67.78 54.53 73.44"/><polygon class="cls-2" points="54.53 81.81 38.38 72.48 38.38 66.83 54.53 76.16 54.53 81.81"/><path class="cls-3" d="M70.6,55.73,54.44,65.06V59.4L65,53.34c3.12-1.8,5.65-.73,5.65,2.39Z"/><path class="cls-3" d="M65,67.37,54.44,73.43V67.78L70.6,58.45h0C70.6,61.58,68.07,65.57,65,67.37Z"/><polygon class="cls-2" points="70.69 47.8 54.53 57.12 38.29 47.8 54.53 38.47 70.69 47.8"/><rect class="cls-3" x="305.04" y="121.16" width="253.96" height="4.32"/><path class="cls-4" d="M556.36,85.41v2.4h-10.8V77h10.8v2.44l-.1-.3-3.19,3.26,3.19,3.26ZM546.14,78.7l0,0,.1.07,3.39,3.38.67.66a1,1,0,0,0,.55.3,1,1,0,0,0,.84-.31l1-1,3-3,.1-.1a2.87,2.87,0,0,0-.46-.07h-8.79A3.11,3.11,0,0,0,546.14,78.7Zm3.29,4.15-.06,0-3.21,3.28a1.4,1.4,0,0,0,.32.06h8.88a1,1,0,0,0,.46-.1l-3.3-3.27a7.28,7.28,0,0,1-.53.57,1.54,1.54,0,0,1-2,0A6.89,6.89,0,0,1,549.43,82.85Zm-3.73-3.68-.05,0a1.8,1.8,0,0,0-.06.32q0,2.91,0,5.82a1.91,1.91,0,0,0,.06.33h.05l3.18-3.25Z"/><path class="cls-7" d="M556.36,85.41l-.1.26-3.19-3.26,3.19-3.26.1.3Z"/><path class="cls-8" d="M546.14,78.7a3.11,3.11,0,0,1,.44-.06h8.79a2.87,2.87,0,0,1,.46.07l-.1.1-3,3-1,1a1,1,0,0,1-.84.31,1,1,0,0,1-.55-.3l-.67-.66-3.39-3.38-.1-.07Z"/><path class="cls-7" d="M549.43,82.85a6.89,6.89,0,0,0,.52.56,1.54,1.54,0,0,0,2,0,7.28,7.28,0,0,0,.53-.57l3.3,3.27a1,1,0,0,1-.46.1h-8.88a1.4,1.4,0,0,1-.32-.06l3.21-3.28Z"/><path class="cls-7" d="M545.7,79.17l3.18,3.25-3.18,3.25h-.05a1.91,1.91,0,0,1-.06-.33q0-2.91,0-5.82a1.8,1.8,0,0,1,.06-.32Z"/><path class="cls-4" d="M547.85,63.12h8.51v8.56a0,0,0,0,1,0,0,1.13,1.13,0,0,0-.39-.76c-.45-.43-.88-.86-1.31-1.31a1.09,1.09,0,0,0-1-.35.88.88,0,0,0-.71.59,1.07,1.07,0,0,1-1,.74,1.5,1.5,0,0,1-.68-.21,4.83,4.83,0,0,1-1.43-1.11A3.91,3.91,0,0,1,549,67.9a1,1,0,0,1,0-.68,1.09,1.09,0,0,1,.71-.68.86.86,0,0,0,.46-.38,1,1,0,0,0-.17-1.28c-.48-.48-.95-1-1.44-1.43a2,2,0,0,0-.39-.26A1,1,0,0,0,547.85,63.12Z"/><path class="cls-7" d="M547.85,63.12a1,1,0,0,1,.24.07,2,2,0,0,1,.39.26c.49.47,1,1,1.44,1.43a1,1,0,0,1,.17,1.28.86.86,0,0,1-.46.38,1.09,1.09,0,0,0-.71.68,1,1,0,0,0,0,.68,3.91,3.91,0,0,0,.85,1.35,4.83,4.83,0,0,0,1.43,1.11,1.5,1.5,0,0,0,.68.21,1.07,1.07,0,0,0,1-.74.88.88,0,0,1,.71-.59,1.09,1.09,0,0,1,1,.35c.43.45.86.88,1.31,1.31a1.13,1.13,0,0,1,.39.76,0,0,0,0,0,0,0v.13s0,.07,0,.1a1,1,0,0,1-.29.6c-.32.33-.65.65-1,1a1.37,1.37,0,0,1-.48.31,2.33,2.33,0,0,1-1.31,0,6.1,6.1,0,0,1-1.66-.65,12.68,12.68,0,0,1-2.22-1.56,16.08,16.08,0,0,1-1.81-1.88,9.85,9.85,0,0,1-1.78-3,3.16,3.16,0,0,1-.2-1.4,1.45,1.45,0,0,1,.39-.88c.32-.33.65-.66,1-1a.94.94,0,0,1,.46-.27l.07,0Z"/><path class="cls-4" d="M547.5,63.12l-.07,0a.94.94,0,0,0-.46.27c-.33.32-.66.65-1,1a1.45,1.45,0,0,0-.39.88,3.16,3.16,0,0,0,.2,1.4,9.85,9.85,0,0,0,1.78,3,16.08,16.08,0,0,0,1.81,1.88,12.68,12.68,0,0,0,2.22,1.56,6.1,6.1,0,0,0,1.66.65,2.33,2.33,0,0,0,1.31,0,1.37,1.37,0,0,0,.48-.31c.32-.32.65-.64,1-1a1,1,0,0,0,.29-.6s0-.07,0-.1v2.11h-10.8V63.12Z"/><path class="cls-4" d="M545.56,101.71V90.91h10.8v10.8Zm4.27-.48h0c-.12-.14-.24-.26-.35-.4a5.51,5.51,0,0,1-.85-1.8l-.17-.68h-2.11l0,.09a5,5,0,0,0,3,2.66Zm0-9.82h-.1a5.08,5.08,0,0,0-3.33,2.75l0,.12h2.11l0-.1a5.41,5.41,0,0,1,1.34-2.78h0Zm2.28,9.82.11,0a5,5,0,0,0,3.19-2.48c.06-.12.12-.25.19-.38h-2.12l0,.1a5.41,5.41,0,0,1-1.34,2.78h0Zm.79-3.57a9.42,9.42,0,0,0,0-2.68H549a9.06,9.06,0,0,0,0,2.68Zm-.13-3.37a0,0,0,0,1,0,0,6,6,0,0,0-.63-1.7,2.15,2.15,0,0,0-.76-.85.76.76,0,0,0-.83,0,2.27,2.27,0,0,0-.47.41,3.9,3.9,0,0,0-.7,1.34c-.09.27-.16.54-.24.82Zm-3.61,4.06a5.48,5.48,0,0,0,.7,1.84,2.1,2.1,0,0,0,.67.72.77.77,0,0,0,.87,0,2.11,2.11,0,0,0,.45-.39,4,4,0,0,0,.7-1.33c.09-.27.16-.55.24-.83Zm-.8-3.37h-2.19c-.07,0-.08,0-.09.09a4.86,4.86,0,0,0,0,2.51c0,.08,0,.1.12.1h2.16A11,11,0,0,1,548.36,95Zm5.22,2.68h2.19c.07,0,.08,0,.09-.09a4.86,4.86,0,0,0,0-2.51c0-.08-.05-.1-.12-.1h-2.16A11,11,0,0,1,553.58,97.66Zm-1.44-6.25v0l.07.08a5.28,5.28,0,0,1,.36.44,6.1,6.1,0,0,1,.89,2.25c0,.08,0,.1.13.1h2a5.07,5.07,0,0,0-3.45-2.88Z"/><path class="cls-8" d="M552.9,97.66h-3.85A9.06,9.06,0,0,1,549,95h3.85A9.42,9.42,0,0,1,552.9,97.66Z"/><path class="cls-7" d="M552.77,94.29h-3.62c.08-.28.15-.55.24-.82a3.9,3.9,0,0,1,.7-1.34,2.27,2.27,0,0,1,.47-.41.76.76,0,0,1,.83,0,2.15,2.15,0,0,1,.76.85,6,6,0,0,1,.63,1.7A0,0,0,0,0,552.77,94.29Z"/><path class="cls-7" d="M549.16,98.35h3.63c-.08.28-.15.56-.24.83a4,4,0,0,1-.7,1.33,2.11,2.11,0,0,1-.45.39.77.77,0,0,1-.87,0,2.1,2.1,0,0,1-.67-.72A5.48,5.48,0,0,1,549.16,98.35Z"/><path class="cls-7" d="M548.36,95a11,11,0,0,0,0,2.69H546.2c-.07,0-.11,0-.12-.1a4.86,4.86,0,0,1,0-2.51c0-.06,0-.09.09-.09h2.19Z"/><path class="cls-7" d="M553.58,97.66a11,11,0,0,0,0-2.69h2.16c.07,0,.11,0,.12.1a4.86,4.86,0,0,1,0,2.51c0,.06,0,.09-.09.09h-2.19Z"/><path class="cls-9" d="M552.11,101.23a5.41,5.41,0,0,0,1.34-2.78l0-.1h2.12c-.07.13-.13.26-.19.38a5,5,0,0,1-3.19,2.48l-.11,0Z"/><path class="cls-9" d="M549.83,91.41a5.41,5.41,0,0,0-1.34,2.78l0,.1h-2.11l0-.12a5.08,5.08,0,0,1,3.33-2.75Z"/><path class="cls-9" d="M552.14,91.41a5.07,5.07,0,0,1,3.45,2.88h-2c-.08,0-.11,0-.13-.1a6.1,6.1,0,0,0-.89-2.25,5.28,5.28,0,0,0-.36-.44l-.07-.08Z"/><path class="cls-9" d="M549.83,101.23l-.49-.13a5,5,0,0,1-3-2.66l0-.09h2.11l.17.68a5.51,5.51,0,0,0,.85,1.8c.11.14.23.26.35.4Z"/><polygon class="cls-9" points="549.83 91.41 549.84 91.41 549.83 91.41 549.83 91.41"/><polygon class="cls-9" points="549.83 101.23 549.84 101.23 549.83 101.23 549.83 101.23"/><polygon class="cls-9" points="552.11 101.23 552.1 101.23 552.11 101.23 552.11 101.23"/><text class="cls-6" transform="translate(462.29 99.46)">www.estimator.com</text><path class="cls-4" d="M556.51,59h-10.8V48.19h10.8Zm-5.67-10.45h0l-.36,0-.37.08a3.71,3.71,0,0,0-2.5,2.34,3.15,3.15,0,0,0-.18.85,2.73,2.73,0,0,0,0,.9,7.71,7.71,0,0,0,.72,1.79,25.28,25.28,0,0,0,2,3.06c.21.29.44.57.66.86a.32.32,0,0,0,.43.14.55.55,0,0,0,.18-.16c.43-.59.88-1.17,1.3-1.77a16.21,16.21,0,0,0,1.74-3.06,3.53,3.53,0,0,0,.34-1.64,4.52,4.52,0,0,0-.24-1.09,3.65,3.65,0,0,0-1.19-1.58,3.33,3.33,0,0,0-1.13-.6,5.37,5.37,0,0,0-.8-.15A4.12,4.12,0,0,0,550.84,48.54Z"/><path class="cls-7" d="M550.84,48.54a4.12,4.12,0,0,1,.61,0,5.37,5.37,0,0,1,.8.15,3.33,3.33,0,0,1,1.13.6,3.65,3.65,0,0,1,1.19,1.58,4.52,4.52,0,0,1,.24,1.09,3.53,3.53,0,0,1-.34,1.64,16.21,16.21,0,0,1-1.74,3.06c-.42.6-.87,1.18-1.3,1.77a.55.55,0,0,1-.18.16.32.32,0,0,1-.43-.14c-.22-.29-.45-.57-.66-.86a25.28,25.28,0,0,1-2-3.06,7.71,7.71,0,0,1-.72-1.79,2.73,2.73,0,0,1,0-.9,3.15,3.15,0,0,1,.18-.85,3.71,3.71,0,0,1,2.5-2.34l.37-.08.36,0Zm.25,4.7a1.33,1.33,0,0,0,1.37-1.32,1.32,1.32,0,0,0-1.33-1.37,1.35,1.35,0,0,0,0,2.69Z"/><path class="cls-4" d="M551.09,53.24a1.35,1.35,0,0,1,0-2.69,1.32,1.32,0,0,1,1.33,1.37A1.33,1.33,0,0,1,551.09,53.24Z"/></svg>